<?xml version="1.0" encoding="UTF-8"?><svg id="Ebene_1" xmlns="http://www.w3.org/2000/svg" viewBox="0 0 996.03 191.28"><defs><style>.cls-1{fill:#fccb2b;}.cls-1,.cls-2,.cls-3,.cls-4{stroke-width:0px;}.cls-2{fill:#000;}.cls-3{fill:#d20301;}.cls-4{fill:#050202;}</style></defs><path class="cls-2" d="M230.81,57.67h12.3v32.99l15.65-32.99h12.3l-14.65,28.74,14.87,49.54h-12.86l-10.4-34.89-4.92,9.95v24.94h-12.3V57.67Z"/><path class="cls-2" d="M281.58,57.67h12.3v78.28h-12.3V57.67Z"/><path class="cls-2" d="M329.88,57.67h18.56c12.75,0,18.23,5.93,18.23,18v3.13c0,8.05-2.46,13.09-7.94,15.32v.23c6.6,2.24,9.17,8.05,9.17,16.32v6.71c0,12.08-6.37,18.56-18.68,18.56h-19.35V57.67ZM346.99,89.54c4.59,0,7.38-2.01,7.38-8.28v-4.36c0-5.59-1.9-8.05-6.26-8.05h-5.93v20.69h4.81ZM349.23,124.77c4.14,0,6.37-1.91,6.37-7.72v-6.82c0-7.27-2.35-9.51-7.94-9.51h-5.48v24.05h7.04Z"/><path class="cls-2" d="M379.08,117.39v-59.72h12.3v60.61c0,5.59,2.35,7.6,6.26,7.6s6.26-2.01,6.26-7.6v-60.61h11.85v59.72c0,12.52-6.26,19.68-18.34,19.68s-18.34-7.15-18.34-19.68Z"/><path class="cls-2" d="M428.94,57.67h15.43l11.97,46.86h.22v-46.86h10.96v78.28h-12.64l-14.76-57.14h-.22v57.14h-10.96V57.67h0Z"/><path class="cls-2" d="M481.16,57.67h18.79c12.3,0,18.34,6.82,18.34,19.35v39.59c0,12.52-6.04,19.35-18.34,19.35h-18.79V57.67ZM499.72,124.77c3.92,0,6.26-2.02,6.26-7.61v-40.71c0-5.59-2.35-7.6-6.26-7.6h-6.26v55.91h6.26Z"/><path class="cls-2" d="M531.03,57.67h33.55v11.19h-21.25v20.69h16.89v11.18h-16.89v24.05h21.25v11.18h-33.55V57.67Z"/><path class="cls-2" d="M574.19,117.39v-4.47h11.63v5.37c0,5.59,2.46,7.6,6.37,7.6s6.37-2.01,6.37-7.83c0-6.49-2.46-10.62-10.51-17.67-10.29-9.06-13.64-15.43-13.64-24.38,0-12.3,6.38-19.46,18.34-19.46s17.89,7.15,17.89,19.68v3.24h-11.63v-4.03c0-5.6-2.24-7.72-6.15-7.72s-6.15,2.13-6.15,7.5c0,5.7,2.57,9.84,10.62,16.89,10.29,9.06,13.53,15.32,13.53,25.05,0,12.75-6.49,19.9-18.57,19.9s-18.11-7.15-18.11-19.68h0Z"/><path class="cls-2" d="M619.13,57.67h12.41l8.05,60.73h.22l8.05-60.73h11.3l-11.85,78.28h-16.33l-11.85-78.28Z"/><path class="cls-2" d="M669.56,57.67h33.55v11.19h-21.25v20.69h16.89v11.18h-16.89v24.05h21.25v11.18h-33.55V57.67Z"/><path class="cls-2" d="M714.62,57.67h18.23c12.75,0,18.23,5.93,18.23,18v4.81c0,8.05-2.57,13.2-8.05,15.43v.23c6.15,1.9,8.16,7.72,8.16,16.55v13.76c0,3.81.11,6.6,1.34,9.51h-12.52c-.67-2.01-1.12-3.24-1.12-9.62v-14.31c0-7.26-2.13-9.62-7.72-9.62h-4.25v33.55h-12.3V57.67ZM731.4,91.22c4.59,0,7.38-2.01,7.38-8.27v-6.04c0-5.59-1.9-8.05-6.26-8.05h-5.59v22.36h4.47Z"/><path class="cls-2" d="M764.16,57.67h18.56c12.75,0,18.23,5.93,18.23,18v3.13c0,8.05-2.46,13.09-7.94,15.32v.23c6.6,2.24,9.17,8.05,9.17,16.32v6.71c0,12.08-6.37,18.56-18.68,18.56h-19.35V57.67ZM781.27,89.54c4.59,0,7.38-2.01,7.38-8.28v-4.36c0-5.59-1.9-8.05-6.26-8.05h-5.93v20.69h4.81ZM783.5,124.77c4.14,0,6.37-1.91,6.37-7.72v-6.82c0-7.27-2.35-9.51-7.94-9.51h-5.48v24.05h7.04Z"/><path class="cls-2" d="M823.31,57.67h16.66l12.75,78.28h-12.3l-2.24-15.54v.22h-13.98l-2.24,15.32h-11.41l12.75-78.28h0ZM836.72,110.01l-5.48-38.69h-.22l-5.37,38.69h11.07Z"/><path class="cls-2" d="M863.11,57.67h15.43l11.97,46.86h.22v-46.86h10.96v78.28h-12.64l-14.76-57.14h-.22v57.14h-10.96V57.67h0Z"/><path class="cls-2" d="M915.32,57.67h18.79c12.3,0,18.34,6.82,18.34,19.35v39.59c0,12.52-6.04,19.35-18.34,19.35h-18.79V57.67ZM933.89,124.77c3.91,0,6.26-2.02,6.26-7.61v-40.71c0-5.59-2.35-7.6-6.26-7.6h-6.26v55.91h6.26Z"/><path class="cls-4" d="M71.44,55.11c2.61-2.48,5.72-3.51,7.85-3.93l.29-.06.3.02c.15,0,.31.02.46.03l.85-1.97c1.16-2.72,2.85-4.84,4.88-6.15,2.5-1.61,4.91-1.74,6.86-1.84.59-.03,1.13-.06,1.63-.12-2.15-2.42-5.95-4.79-10.11-3.89-5.6,1.2-5.37,3.7-8.12,5.21-3.25,1.79-6.67.09-10.34,2.46-2.02,1.3-3.27,3.39-4.01,5.13.98.15,2.01.34,3.07.6,3.26.79,5.26,2.57,6.42,4.52h0Z"/><path class="cls-4" d="M58.83,96.73c1.06-.66,2.07-1.09,3.03-1.37-.28-1.14-.47-2.29-.57-3.49-.31-3.52.27-6.08,1.08-8.13-.54.05-1.05.06-1.52.06-1.69,0-2.88-.22-3-.25-1-.2-1.66-1.16-1.46-2.16.2-1,1.16-1.64,2.17-1.45.04,0,3.02.55,5.87-.3.41-.78.75-1.5.91-2.25.32-1.5.32-2.46.32-3.68-.01-2.2-.02-4.93,1.69-11.41.39-1.49.93-2.78,1.56-3.9-.47-1.55-1.67-3.48-4.75-4.23-2.08-.5-4.05-.74-5.76-.85-3.18.63-8.38,2.69-10.17,9.45-2.64,10-.98,10.43-1.98,15-.85,3.9-4.65,6.28-4,13.78.63,7.22,4.82,12.04,8.2,15.04,1.79-3.4,4.57-7.48,8.38-9.87Z"/><path class="cls-4" d="M92.01,142.87c-.21-.7-.53-.89-1.9-1.53-.82-.38-1.85-.85-2.86-1.64-.29-.22-.57-.49-.85-.8l-.61-.68.02-1.15c.02-1.16.05-2.36.13-3.59l-2.14-1.15c-2.25-1.21-6.51-4.16-10.14-10.41-1.62.52-3.24,1.33-4.05,2.52-2.65,3.89-2.74,8.3-2.83,12.57v.24c.16.18.34.36.54.52,2.26,1.75,4.71,1.6,5.55,4.3.98,3.17,1.24,8.35,8.11,8.87,5.32.41,9.42-4.24,11.49-6.36-.03-.14-.08-.28-.11-.42-.12-.47-.23-.91-.35-1.29h0Z"/><path class="cls-4" d="M72,118.58c-.76-1.89-1.19-3.71-1.27-5.49l-.02-.47.16-.44c.23-.62.55-1.44.96-2.35l-1.57-1.4c-3.34-2.97-5.73-6.14-7.22-9.58-.72.2-1.45.5-2.24.99-5.18,3.24-8.26,10.71-9.11,13.02.09,1.84.61,4.23,2.36,7.34,3.38,6.02,7.32,8.81,9.5,9.98.42-2.62,1.26-5.28,3-7.82,1.29-1.89,3.42-3.06,5.45-3.79h0Z"/><path class="cls-3" d="M84.65,49.99c.98.15,2.01.34,3.07.6,3.1.75,5.06,2.4,6.25,4.24,2.59-2.42,5.65-3.42,7.75-3.83l.29-.06.3.02c.16.01.3.02.46.03l.85-1.97c1.16-2.72,2.85-4.84,4.88-6.16,2.49-1.61,4.9-1.74,6.85-1.84.6-.03,1.15-.06,1.67-.13-2.07-2.51-5.52-4.64-9.87-3.7-5.59,1.2-5.37,3.7-8.12,5.21-3.25,1.79-6.67.09-10.34,2.46-2.01,1.3-3.27,3.39-4.01,5.13h-.01Z"/><path class="cls-3" d="M91.45,57.98c-.55-1.46-1.8-3.13-4.61-3.81-2.08-.5-4.05-.74-5.76-.85-3.18.63-8.38,2.69-10.17,9.45-2.64,10-.98,10.43-1.98,15-.85,3.9-4.65,6.28-4,13.78.63,7.22,4.82,12.04,8.2,15.04,1.79-3.4,4.57-7.48,8.38-9.87.98-.62,1.92-1.03,2.82-1.3-.31-1.21-.53-2.46-.64-3.74-.3-3.4.23-5.9,1-7.92-.41.02-.8.04-1.16.04-1.69,0-2.88-.22-3-.25-1-.2-1.66-1.16-1.46-2.16.2-1,1.16-1.64,2.17-1.45.03,0,2.72.5,5.43-.18.49-.9.89-1.72,1.07-2.55.33-1.49.32-2.46.32-3.68-.02-2.2-.02-4.93,1.68-11.42.42-1.59,1-2.96,1.7-4.13h0Z"/><path class="cls-3" d="M94.25,109.64l-1.57-1.4c-3.27-2.9-5.62-6-7.12-9.35-.67.2-1.34.49-2.07.95-5.18,3.24-8.26,10.71-9.11,13.02.09,1.84.61,4.23,2.36,7.34,3.38,6.02,7.32,8.81,9.5,9.98.42-2.62,1.26-5.28,3-7.82,1.25-1.83,3.29-3,5.28-3.73-.83-1.98-1.29-3.87-1.37-5.74l-.02-.47.16-.44c.23-.62.55-1.44.96-2.36h0Z"/><path class="cls-3" d="M114.43,142.68c-.21-.7-.53-.89-1.9-1.53-.82-.38-1.85-.85-2.86-1.64-.3-.22-.57-.48-.85-.8l-.61-.68.03-1.16c.02-1.16.05-2.36.13-3.59l-2.14-1.15c-2.22-1.19-6.4-4.09-10.01-10.18-1.57.52-3.13,1.31-3.91,2.47-2.65,3.89-2.74,8.3-2.83,12.57v.24c.16.18.34.36.54.52,2.26,1.75,4.71,1.6,5.55,4.3.98,3.17,1.24,8.35,8.11,8.87,5.18.4,9.19-3.99,11.31-6.18-.08-.28-.14-.54-.21-.79-.12-.47-.23-.91-.35-1.29h0Z"/><path class="cls-1" d="M186.09,77.77c-1-4.57.66-5-1.99-15-2.64-10-12.75-9.72-12.75-9.72,0,0-1.01-5.62-4.99-8.19-3.67-2.38-7.09-.67-10.34-2.46-2.76-1.52-2.53-4.01-8.13-5.21-5.39-1.16-9.31,3.23-9.31,3.23,0,0-2.29-2.57-5.78-3.25-1.07-.21-2.26-.25-3.53.02-5.6,1.2-5.37,3.7-8.13,5.21-3.25,1.79-6.67.09-10.34,2.46-2.01,1.3-3.27,3.38-4.01,5.13.98.15,2.01.35,3.07.6,6.65,1.6,8.04,7.35,7.86,10.16-.07.97-.88,1.72-1.85,1.72-.04,0-.08,0-.13,0-1.01-.07-1.78-.94-1.72-1.95.03-.53.11-5.11-5.04-6.35-2.08-.51-4.05-.75-5.76-.85-3.18.63-8.38,2.69-10.17,9.45-2.65,10-.98,10.43-1.98,15-.86,3.9-4.66,6.28-4,13.78.63,7.22,4.82,12.04,8.2,15.04,1.79-3.4,4.57-7.48,8.38-9.87,2.76-1.73,5.18-1.84,7.3-1.95,1.92-.09,3.74-.18,6.01-1.39,5.09-2.7,6.32-6.33,6.59-10.94.06-1.01.93-1.79,1.95-1.73,1.02.06,1.8.93,1.74,1.95-.29,4.82-1.52,10.24-8.54,13.97-3,1.6-5.43,1.72-7.57,1.83-2,.1-3.57.17-5.52,1.39-5.18,3.24-8.26,10.71-9.11,13.02.09,1.84.61,4.23,2.36,7.34,3.38,6.02,7.32,8.81,9.5,9.98.42-2.62,1.26-5.28,2.99-7.82,2.9-4.25,10.06-4.88,10.86-4.95,1.02-.08,1.9.69,1.98,1.71.08,1.01-.69,1.9-1.71,1.97-1.7.13-6.46.97-8.07,3.34-2.65,3.89-2.74,8.3-2.83,12.57v.24c.16.18.34.36.54.53,2.26,1.75,4.71,1.6,5.55,4.3.98,3.17,1.24,8.35,8.11,8.87,2.66.2,5.03-.86,6.98-2.25,3.08-2.17,5.14-5.14,5.78-5.14,1.06,0,5.89,7.91,12.76,7.38,6.87-.52,7.13-5.7,8.11-8.87.85-2.7,3.29-2.55,5.55-4.3,2.67-2.08,2.11-6.84,2.11-6.84,0,0,6.19-1.88,11.16-10.72,4.53-8.08.85-11.28,2.59-12.73,3.49-2.9,8.53-7.94,9.22-15.92.65-7.51-3.14-9.88-3.99-13.78ZM130.3,117.02c-.37.43-.89.65-1.41.65-.42,0-.83-.14-1.18-.43-.17-.15-4.28-3.67-4.27-10.3,0-6.07,3.62-8.83,3.78-8.95.82-.61,1.98-.44,2.59.37.61.81.45,1.95-.36,2.57-.13.1-2.3,1.9-2.3,6.01,0,4.86,2.85,7.39,2.96,7.49.77.66.86,1.82.2,2.59ZM132.8,65.19c-.38.93-1.44,1.39-2.39,1.02-.11-.04-3.12-1.11-7.12.65-2.03.9-3.35,4.01-4.62,7.01-1.22,2.88-2.37,5.6-4.36,7.23-2.73,2.24-6.2,2.71-8.63,2.71-1.69,0-2.89-.23-3.01-.25-1-.2-1.66-1.17-1.45-2.17.2-1,1.16-1.64,2.17-1.45.05.01,5.33.98,8.58-1.68,1.28-1.06,2.31-3.48,3.3-5.82,1.55-3.67,3.16-7.46,6.53-8.95,5.47-2.41,9.79-.78,9.97-.71.49.2.86.58,1.03,1.03v1.38ZM173.23,64.8c1.78,0,3.23,1.44,3.23,3.22s-1.45,3.22-3.23,3.22-3.23-1.44-3.23-3.22,1.45-3.22,3.23-3.22ZM161.34,76.65c1.78,0,3.23,1.44,3.23,3.22s-1.45,3.22-3.23,3.22-3.23-1.44-3.23-3.22,1.45-3.22,3.23-3.22ZM158.11,68.19c0-1.78,1.45-3.22,3.23-3.22s3.23,1.44,3.23,3.22-1.45,3.22-3.23,3.22-3.23-1.44-3.23-3.22ZM164.57,91.55c0,1.78-1.45,3.22-3.23,3.22s-3.23-1.44-3.23-3.22,1.45-3.22,3.23-3.22,3.23,1.44,3.23,3.22ZM158.63,85.61c0,1.78-1.45,3.22-3.23,3.22s-3.23-1.44-3.23-3.22,1.45-3.22,3.23-3.22,3.23,1.44,3.23,3.22ZM149.45,83.09c-1.78,0-3.23-1.44-3.23-3.22s1.45-3.22,3.23-3.22,3.23,1.44,3.23,3.22-1.45,3.22-3.23,3.22ZM149.45,88.33c1.78,0,3.23,1.44,3.23,3.22s-1.45,3.22-3.23,3.22-3.23-1.44-3.23-3.22,1.45-3.22,3.23-3.22ZM149.45,100.01c1.78,0,3.23,1.44,3.23,3.22s-1.45,3.22-3.23,3.22-3.23-1.44-3.23-3.22,1.45-3.22,3.23-3.22ZM149.45,111.69c1.78,0,3.23,1.44,3.23,3.22s-1.45,3.22-3.23,3.22-3.23-1.44-3.23-3.22,1.45-3.22,3.23-3.22ZM155.39,117.43c1.78,0,3.23,1.44,3.23,3.22s-1.45,3.22-3.23,3.22-3.23-1.44-3.23-3.22,1.45-3.22,3.23-3.22ZM155.39,112.19c-1.78,0-3.23-1.44-3.23-3.22s1.45-3.22,3.23-3.22,3.23,1.44,3.23,3.22-1.45,3.22-3.23,3.22ZM158.11,103.23c0-1.78,1.45-3.22,3.23-3.22s3.23,1.44,3.23,3.22-1.45,3.22-3.23,3.22-3.23-1.44-3.23-3.22ZM167.28,105.77c1.78,0,3.23,1.44,3.23,3.22s-1.45,3.22-3.23,3.22-3.23-1.44-3.23-3.22,1.45-3.22,3.23-3.22ZM167.28,88.83c-1.78,0-3.23-1.44-3.23-3.22s1.45-3.22,3.23-3.22,3.23,1.44,3.23,3.22-1.45,3.22-3.23,3.22ZM170,79.87c0-1.78,1.45-3.22,3.23-3.22s3.23,1.44,3.23,3.22-1.45,3.22-3.23,3.22-3.23-1.44-3.23-3.22ZM167.28,59.03c1.78,0,3.23,1.44,3.23,3.22s-1.45,3.22-3.23,3.22-3.23-1.44-3.23-3.22,1.45-3.22,3.23-3.22ZM161.34,53.29c1.78,0,3.23,1.44,3.23,3.22s-1.45,3.22-3.23,3.22-3.23-1.44-3.23-3.22,1.45-3.22,3.23-3.22ZM155.39,47.35c1.78,0,3.23,1.44,3.23,3.22s-1.45,3.22-3.23,3.22-3.23-1.44-3.23-3.22,1.45-3.22,3.23-3.22ZM149.45,53.29c1.78,0,3.23,1.44,3.23,3.22s-1.45,3.22-3.23,3.22-3.23-1.44-3.23-3.22,1.45-3.22,3.23-3.22ZM143.51,47.35c1.78,0,3.23,1.44,3.23,3.22s-1.45,3.22-3.23,3.22-3.23-1.44-3.23-3.22,1.45-3.22,3.23-3.22ZM143.51,59.03c1.78,0,3.23,1.44,3.23,3.22s-1.45,3.22-3.23,3.22-3.23-1.44-3.23-3.22,1.45-3.22,3.23-3.22ZM143.51,70.71c1.78,0,3.23,1.44,3.23,3.22s-1.45,3.22-3.23,3.22-3.23-1.44-3.23-3.22,1.45-3.22,3.23-3.22ZM143.51,94.07c1.78,0,3.23,1.44,3.23,3.22s-1.45,3.22-3.23,3.22-3.23-1.44-3.23-3.22,1.45-3.22,3.23-3.22ZM143.51,117.43c1.78,0,3.23,1.44,3.23,3.22s-1.45,3.22-3.23,3.22-3.23-1.44-3.23-3.22,1.45-3.22,3.23-3.22ZM143.51,135.55c-1.78,0-3.23-1.44-3.23-3.22s1.45-3.22,3.23-3.22,3.23,1.44,3.23,3.22-1.45,3.22-3.23,3.22ZM149.45,141.49c-1.78,0-3.23-1.44-3.23-3.22s1.45-3.22,3.23-3.22,3.23,1.44,3.23,3.22-1.45,3.22-3.23,3.22ZM155.39,135.55c-1.78,0-3.23-1.44-3.23-3.22s1.45-3.22,3.23-3.22,3.23,1.44,3.23,3.22-1.45,3.22-3.23,3.22ZM161.34,129.81c-1.78,0-3.23-1.44-3.23-3.22s1.45-3.22,3.23-3.22,3.23,1.44,3.23,3.22-1.45,3.22-3.23,3.22ZM167.28,123.87c-1.78,0-3.23-1.44-3.23-3.22s1.45-3.22,3.23-3.22,3.23,1.44,3.23,3.22-1.45,3.22-3.23,3.22ZM173.23,106.45c-1.78,0-3.23-1.44-3.23-3.22s1.45-3.22,3.23-3.22,3.23,1.44,3.23,3.22-1.45,3.22-3.23,3.22ZM173.23,94.87c-1.78,0-3.23-1.44-3.23-3.22s1.45-3.22,3.23-3.22,3.23,1.44,3.23,3.22-1.45,3.22-3.23,3.22ZM179.17,88.83c-1.78,0-3.23-1.44-3.23-3.22s1.45-3.22,3.23-3.22,3.23,1.44,3.23,3.22-1.45,3.22-3.23,3.22ZM179.17,77.15c-1.78,0-3.23-1.44-3.23-3.22s1.45-3.22,3.23-3.22,3.23,1.44,3.23,3.22-1.45,3.22-3.23,3.22Z"/></svg>